<?xml version="1.0" standalone="no"?>
<!DOCTYPE svg PUBLIC "-//W3C//DTD SVG 20010904//EN"
 "http://www.w3.org/TR/2001/REC-SVG-20010904/DTD/svg10.dtd">
<svg version="1.0" xmlns="http://www.w3.org/2000/svg"
 width="256.000000pt" height="256.000000pt" viewBox="0 0 256.000000 256.000000"
 preserveAspectRatio="xMidYMid meet">
<metadata>
Created by potrace 1.14, written by Peter Selinger 2001-2017
</metadata>
<g transform="translate(0.000000,256.000000) scale(0.100000,-0.100000)"
fill="#000000" stroke="none">
<path d="M400 2449 c-113 -12 -198 -67 -255 -167 -34 -60 -39 -107 -38 -385 1
-300 6 -320 98 -413 92 -92 116 -98 445 -97 l266 1 64 29 c84 38 150 109 175
188 15 48 18 96 18 319 0 230 -2 268 -18 311 -25 66 -59 114 -109 151 -79 60
-111 66 -358 68 -123 0 -252 -2 -288 -5z"/>
<path d="M1657 2447 c-115 -16 -214 -99 -252 -212 -14 -42 -17 -93 -18 -316 0
-322 4 -340 98 -434 93 -93 117 -98 434 -98 220 1 268 3 316 18 79 25 150 91
188 175 l29 64 1 266 c1 329 -5 353 -97 445 -92 91 -113 96 -403 98 -132 1
-265 -2 -296 -6z"/>
<path d="M389 1169 c-76 -8 -142 -43 -198 -105 -77 -84 -83 -118 -84 -428 0
-230 2 -268 18 -312 36 -95 101 -162 195 -199 39 -15 80 -17 300 -18 141 0
273 3 295 7 123 23 233 134 251 253 4 27 7 159 7 296 -1 300 -6 320 -98 413
-89 89 -119 96 -404 98 -124 0 -251 -2 -282 -5z"/>
<path d="M1657 1167 c-115 -16 -214 -99 -252 -212 -14 -42 -17 -93 -18 -316 0
-322 4 -340 98 -434 93 -93 117 -98 434 -98 220 1 268 3 316 18 79 25 150 91
188 175 l29 64 1 266 c1 329 -5 353 -97 445 -92 91 -113 96 -403 98 -132 1
-265 -2 -296 -6z"/>
</g>
</svg>
